<svg width="300" height="75" viewBox="0 0 300 75" fill="none" xmlns="http://www.w3.org/2000/svg">
<path d="M0 -1.90735e-06C0 -1.90735e-06 149 -1.90735e-06 176.5 -1.90735e-06C204 -1.90735e-06 231.99 24.1909 247 37.5C271.747 59.4419 300 75 300 75H0V-1.90735e-06Z" fill="#E42529"/>
<path fill-rule="evenodd" clip-rule="evenodd" d="M101.84 50.1434C101.687 50.3574 101.328 50.3364 101.137 50.3364C100.976 50.3364 99.6051 50.2104 99.4711 50.2104H96.4441C95.1621 51.5084 93.8281 53.2444 93.8471 54.6404C93.8861 56.5884 96.1511 56.9484 97.0211 56.9484C98.5031 56.9274 99.5281 56.4444 101.026 55.5984C101.026 55.5984 101.13 55.6624 101.199 55.6624L101.179 55.8774C99.4011 57.3704 97.5711 58.2034 96.0211 58.2034C94.8091 58.2034 92.3781 57.6334 92.3381 55.5024C92.3061 53.7674 93.9881 52.0444 95.6631 50.3054L90.1231 50.5834C89.9341 50.5984 89.6831 50.5984 89.6831 50.3364C89.6831 50.1104 90.1161 49.1564 90.5131 49.1564H96.6421C97.0041 48.7764 97.3321 48.3894 97.6521 48.1604C98.0241 48.1604 98.1231 48.2454 98.1761 48.2454C97.9911 48.4894 97.7131 48.8014 97.4111 49.1204C98.4741 49.2644 100.749 49.2324 101.56 49.6054C101.679 49.6724 101.75 49.9304 101.819 50.1284L101.839 50.1434H101.84Z" fill="white"/>
<path fill-rule="evenodd" clip-rule="evenodd" d="M108.837 56.7674C108.509 57.0774 106.564 58.3934 105.813 58.3934C105.24 58.3934 104.981 57.7564 104.971 57.4854L104.942 55.9604C104.942 55.8104 104.832 55.7274 104.693 55.7274C104.111 55.7274 102.108 58.0884 101.138 58.0694C100.498 58.0694 100.446 57.2234 100.446 56.9274C100.446 56.5904 100.41 56.3314 100.809 55.7974C102.189 53.9774 103.52 52.1644 105.045 50.4074C105.153 50.2744 105.515 50.0354 105.675 50.0354C106.036 50.0354 105.972 50.2354 105.972 50.4214C105.972 50.5654 105.855 51.1544 105.722 51.4444C105.433 52.0444 105.119 52.6104 104.282 53.4224C103.962 53.7184 101.76 55.1624 101.767 55.9604C101.779 56.1024 101.919 56.8334 102.378 56.8514C102.701 56.8514 103.28 56.3674 103.728 56.0094C104.093 55.7094 104.561 55.3414 104.992 55.0634C105.19 54.9354 105.582 54.7374 105.954 54.8084C106.324 55.0634 106.274 55.4394 106.324 55.7424C106.382 56.2054 106.371 56.7384 106.382 57.2224C106.435 57.2964 106.546 57.4094 106.592 57.4734C107.204 57.5304 107.917 57.0984 108.559 56.5434H108.789C108.789 56.5434 108.859 56.7044 108.809 56.7684H108.837V56.7674Z" fill="white"/>
<path fill-rule="evenodd" clip-rule="evenodd" d="M110.54 54.8414C110.048 54.8414 109 55.4534 108.866 56.1174C108.936 56.1174 110.962 55.9074 110.951 55.1874C110.951 54.9854 110.831 54.8414 110.541 54.8414H110.54ZM113.536 56.5624C112.201 57.4084 111.01 58.1324 109.818 58.1324C109.088 58.1324 107.758 57.8394 107.727 56.7684C107.688 55.3254 110.619 54.3044 111.25 54.2784C111.768 54.2784 112.035 54.5764 112.041 54.9134C112.061 56.1734 108.896 56.4134 108.837 56.4434C109.057 57.1424 110.098 57.2074 110.611 57.2074C111.449 57.2074 112.553 56.8034 113.536 56.3474V56.5754V56.5624V56.5624ZM127.034 58.4544C126.382 58.5474 124.964 58.7124 124.55 58.7124C122.915 58.7124 120.73 58.2844 119.953 57.0014C119.953 56.9414 119.993 56.8474 119.981 56.7854H120.201C121.194 58.0944 123.211 58.2844 124.437 58.2844C126.593 58.2844 129.773 57.6324 131.519 54.9134C131.786 54.4684 131.974 53.9284 131.955 53.4304C131.949 51.5574 129.872 51.1504 128.893 51.1504C125.888 51.1334 121.684 53.4904 119.122 56.6524C118.753 57.0994 117.125 61.9674 115.817 61.9674C115.491 61.9674 114.945 61.7184 114.934 61.3354C114.926 60.4954 118.65 56.5304 118.742 56.3854C119.204 55.5384 119.63 54.4564 120.053 53.4804L120.023 53.3934C119.772 53.5554 119.323 53.6934 119.21 53.6934C118.82 53.6934 117.777 53.0934 117.572 52.6484C117.878 52.6814 118.028 52.6664 118.18 52.6664C119.323 52.6664 120.964 51.2414 121.684 50.0664C121.72 50.0664 121.874 50.1504 121.921 50.2204C122.041 50.5984 122.219 51.5304 122.219 51.6704C122.223 52.3524 121.194 52.5684 120.676 53.1404C120.531 53.3144 120.396 53.6944 120.293 53.9164C120.053 54.5074 119.609 55.1884 119.588 55.6314C122.375 52.8584 126.672 50.0664 130.005 50.0664C131.394 50.0664 133.548 50.7654 133.58 52.8224C133.636 55.7804 129.014 58.2104 127.034 58.4544M139.738 56.1534C139.297 56.8134 137.175 58.1314 136.092 58.1314C135.833 58.1314 134.691 57.7944 134.672 57.2964C134.672 57.0284 135.722 56.4604 135.852 56.2484C135.754 55.9604 134.747 55.5984 134.712 55.5984C134.548 55.5984 134.112 55.9744 133.869 56.1024C133.869 56.1024 133.771 56.0254 133.699 56.0094C133.832 55.8474 134.096 55.6184 134.297 55.4214C134.33 55.3774 134.192 55.2644 134.2 55.1144C134.297 54.9014 135.34 53.8694 135.743 53.8694C135.909 53.8694 135.931 53.9474 136.002 54.0064L135.982 54.2024C135.982 54.3664 135.833 54.5124 135.621 54.7264C135.788 54.9364 136.905 55.2404 136.911 55.6324C136.922 56.1924 136.041 56.1744 136.033 56.6534C136.041 57.2084 137.03 57.2084 137.063 57.2084C137.815 57.2084 138.724 56.6354 139.406 56.1744H139.718L139.738 56.1534V56.1534Z" fill="white"/>
<path fill-rule="evenodd" clip-rule="evenodd" d="M141.642 53.2434C141.368 53.2434 140.68 53.0204 140.667 52.6924C140.687 52.3694 141.387 52.0124 141.458 51.9944C141.613 51.9944 142.356 52.5214 142.794 52.7134C142.572 53.1204 141.943 53.2434 141.642 53.2434M139.779 58.1304C138.934 58.1304 138.493 57.7564 138.474 57.0284C138.474 56.8844 138.504 56.5304 138.596 56.2954C138.661 56.2064 140.432 54.4804 140.762 54.4914C140.912 54.4914 140.977 54.5614 141.048 54.5614L141.056 54.7734C140.495 55.2634 139.796 55.9414 139.809 56.4614C139.829 57.1134 140.489 57.2084 140.738 57.2084C141.579 57.2084 142.297 56.6794 143.062 56.2194L143.162 56.2954V56.5304C142.442 57.0624 140.868 58.1304 139.779 58.1304" fill="white"/>
<path fill-rule="evenodd" clip-rule="evenodd" d="M151.087 56.5074C150.109 57.1914 148.878 58.1314 147.899 58.1314C147.044 58.1314 146.235 57.5794 146.607 56.1744C146.607 56.1744 146.642 56.1524 146.577 56.0854C145.432 57.0624 144.292 58.1314 143.26 58.1314C142.528 58.1314 141.96 57.6994 141.943 56.9954C141.906 55.2414 145.293 54.4804 145.926 54.4924C146.068 54.4924 146.428 54.5624 146.639 54.5504C146.639 54.6144 146.703 54.7714 146.703 54.8404C146.666 54.9024 146.607 54.9844 146.443 54.9844C146.288 54.9844 146.097 54.9124 145.963 54.9124C145.368 54.9124 143.423 55.5504 143.443 56.5624C143.45 57.0984 143.988 57.0984 144.152 57.0794C144.977 57.0794 146.254 56.1934 146.835 55.4864C147.308 54.8784 147.535 54.0404 147.918 53.3414C148.071 53.0454 149.996 50.0344 150.587 50.0084C150.819 50.0084 150.893 50.5404 150.893 50.5654C150.943 52.9494 147.5 53.9604 147.535 55.9414C147.546 56.8514 148.215 57.2084 148.83 57.2084C149.7 57.2084 150.288 56.5304 150.98 56.2194L151.05 56.2954L151.06 56.5304L151.087 56.5074V56.5074Z" fill="white"/>
<path fill-rule="evenodd" clip-rule="evenodd" d="M152.672 54.8414C152.193 54.8414 151.132 55.4534 151.001 56.1174C151.071 56.1174 153.104 55.9074 153.083 55.1874C153.083 54.9854 152.967 54.8414 152.673 54.8414H152.672ZM155.663 56.5624C154.333 57.4084 153.147 58.1324 151.952 58.1324C151.231 58.1324 149.904 57.8394 149.859 56.7684C149.829 55.3254 152.753 54.3044 153.382 54.2784C153.906 54.2784 154.165 54.5764 154.175 54.9134C154.195 56.1734 151.03 56.4134 150.972 56.4434C151.181 57.1424 152.235 57.2074 152.732 57.2074C153.585 57.2074 154.688 56.8034 155.663 56.3474V56.5754V56.5624V56.5624ZM164.26 55.9084C163.836 57.4734 161.925 58.1304 160.744 58.1534C160.232 58.1534 159.071 57.9374 159.052 57.0474C159.034 55.8664 160.704 54.9454 161.695 54.7254C161.769 54.6784 161.814 54.6144 161.968 54.6144H162.466C162.466 54.6144 162.408 54.7864 162.343 54.8414C162.025 54.9454 160.416 55.2134 160.401 56.2474C160.422 57.1314 161.725 57.2074 161.975 57.2074C162.528 57.2074 163.407 56.9694 163.917 55.9434C163.415 55.8934 162.907 55.7644 162.359 55.6484C162.529 55.2724 162.747 54.8234 162.982 54.4914C163.727 54.8074 164.452 55.2954 165.322 55.2954C165.447 55.2954 165.82 55.2644 166.182 55.1884C165.941 55.6844 164.774 55.8084 164.259 55.9084" fill="white"/>
<path fill-rule="evenodd" clip-rule="evenodd" d="M168.121 55.2134C168.264 55.4064 168.824 55.3594 169.064 55.3594C169.222 55.3594 169.888 55.3094 170.677 55.3094C170.027 56.0384 168.454 55.7654 167.524 56.0094C167.36 56.0384 167.001 56.4764 166.932 56.8154C166.881 57.0624 167.012 57.9264 167.002 58.4754C167.002 58.6254 166.224 61.9224 165.463 61.9224C164.989 61.9224 165.06 61.1774 165.06 61.0424C165.047 60.4464 165.21 59.0444 165.552 58.2174C165.771 57.7154 166.482 56.3804 166.482 56.2674C166.482 56.1394 166.384 56.0374 166.258 55.9094C165.857 55.8912 165.46 55.824 165.076 55.7094C165.076 55.6494 165.136 55.4864 165.211 55.4524C165.302 55.3414 166.201 54.9124 166.332 54.9124C166.485 54.9124 167.045 55.1024 167.211 55.1024C167.339 55.1024 169.328 51.5424 169.965 50.4214C170.097 50.2104 170.51 50.0344 170.575 50.0084C170.914 50.0084 170.877 50.3814 170.887 50.4864C170.906 52.0654 169.867 53.2924 168.121 55.2134M193.292 55.7644C192.643 56.6794 191.262 57.9574 190.304 57.9574C189.304 57.9574 189.2 56.4774 189.007 56.0254C188.871 55.6324 188.737 54.9454 188.552 54.3974C188.129 53.0814 188.118 52.0814 187.407 51.1164C187.057 50.6164 186.528 50.5824 186.217 50.5824C184.208 50.5824 181.831 52.9704 180.405 53.8244C182.294 54.1104 183.222 54.0594 184.435 54.0404C184.574 54.0404 185.989 54.0604 186.779 53.9604C186.99 53.9484 187.489 53.8004 187.646 53.8104H187.851L187.827 53.9484C187.839 54.0254 187.717 54.1764 187.657 54.2254C186.599 54.9354 184.501 55.1024 182.949 55.1154C182.81 55.1154 181.192 55.0794 180.461 55.0304C180.119 55.0154 179.337 54.8554 179.176 54.8554C179.125 54.8554 175.604 58.5124 174.099 58.5124C173.799 58.5124 173.5 58.3254 173.49 58.1174C173.49 57.6804 177.046 55.3414 178.058 54.5754C177.878 54.4474 177.566 54.3454 177.328 54.2334L177.294 53.9994C177.566 53.7674 178.354 53.2434 178.536 53.2434C178.666 53.2434 179.336 53.6234 179.478 53.6234C179.518 53.6234 185.885 49.1574 187.42 49.1574C189.772 49.1574 190.219 56.8984 191.318 56.8984C191.878 56.8984 192.453 55.9744 193.088 55.5984C193.155 55.6634 193.247 55.7014 193.292 55.7424V55.7644V55.7644Z" fill="white"/>
<path fill-rule="evenodd" clip-rule="evenodd" d="M195.962 55.2134C196.101 55.4064 196.672 55.3594 196.892 55.3594C197.045 55.3594 197.712 55.3094 198.511 55.3094C197.861 56.0384 196.286 55.7654 195.346 56.0094C195.196 56.0384 194.838 56.4764 194.782 56.8154C194.719 57.0624 194.838 57.9264 194.838 58.4754C194.838 58.6254 194.056 61.9224 193.305 61.9224C192.827 61.9224 192.905 61.1774 192.898 61.0424C192.883 60.4464 193.036 59.0444 193.382 58.2174C193.606 57.7154 194.318 56.3804 194.307 56.2674C194.307 56.1394 194.218 56.0374 194.097 55.9094C193.697 55.8926 193.302 55.8254 192.919 55.7094C192.904 55.6494 192.975 55.4864 193.036 55.4524C193.125 55.3414 194.036 54.9124 194.166 54.9124C194.328 54.9124 194.889 55.1024 195.041 55.1024C195.168 55.1024 197.159 51.5424 197.803 50.4214C197.93 50.2104 198.342 50.0344 198.414 50.0084C198.754 50.0084 198.71 50.3814 198.71 50.4864C198.74 52.0654 197.69 53.2924 195.962 55.2134" fill="white"/>
<path fill-rule="evenodd" clip-rule="evenodd" d="M203.52 56.1534C203.106 56.8134 201.056 58.1314 200.004 58.1314C199.752 58.1314 198.653 57.7944 198.646 57.2964C198.646 57.0284 199.658 56.4604 199.782 56.2484C199.694 55.9604 198.725 55.5984 198.68 55.5984C198.52 55.5984 198.088 55.9744 197.86 56.1024C197.86 56.1024 197.771 56.0254 197.705 56.0094C197.81 55.8474 198.083 55.6184 198.292 55.4214C198.313 55.3774 198.173 55.2644 198.182 55.1144C198.282 54.9014 199.269 53.8694 199.663 53.8694C199.833 53.8694 199.856 53.9474 199.921 54.0064L199.906 54.2024C199.906 54.3664 199.752 54.5124 199.551 54.7264C199.718 54.9364 200.794 55.2404 200.807 55.6324C200.807 56.1924 199.964 56.1744 199.951 56.6534C199.964 57.2084 200.929 57.2084 200.936 57.2084C201.676 57.2084 202.561 56.6354 203.209 56.1744H203.5L203.52 56.1534V56.1534Z" fill="white"/>
<path fill-rule="evenodd" clip-rule="evenodd" d="M205.59 53.2434C205.323 53.2434 204.628 53.0204 204.62 52.6924C204.64 52.3694 205.342 52.0124 205.413 51.9944C205.576 51.9944 206.301 52.5214 206.743 52.7134C206.518 53.1204 205.893 53.2434 205.59 53.2434M203.72 58.1304C202.876 58.1304 202.437 57.7564 202.43 57.0284C202.43 56.8844 202.466 56.5304 202.545 56.2954C202.607 56.2064 204.379 54.4804 204.71 54.4914C204.866 54.4914 204.934 54.5614 205.003 54.5614V54.7734C204.441 55.2634 203.748 55.9414 203.758 56.4614C203.774 57.1134 204.427 57.2084 204.683 57.2084C205.533 57.2084 206.256 56.6794 207.017 56.2194L207.106 56.2954L207.109 56.5304C206.396 57.0624 204.819 58.1304 203.719 58.1304" fill="white"/>
<path fill-rule="evenodd" clip-rule="evenodd" d="M207.807 58.1314C207.303 58.1314 206.135 57.8614 206.121 56.8694C206.084 55.2644 209.469 54.5514 210.138 54.5514C210.299 54.5514 210.448 54.5614 210.628 54.6784L210.651 55.0284C210.466 55.1434 210.238 55.1614 210.096 55.1614C209.939 55.1614 209.395 55.1014 209.256 55.1144C208.774 55.1144 207.474 55.3084 207.5 56.2394C207.5 57.0624 208.492 57.2094 208.835 57.2094C208.975 57.2094 209.268 57.1624 209.425 57.1314C210.155 56.9154 211.469 56.2204 211.631 56.2204H211.951V56.4444C211.301 56.8994 209.015 58.1314 207.807 58.1314" fill="white"/>
<path fill-rule="evenodd" clip-rule="evenodd" d="M215.447 55.5414C215.433 55.1874 215.145 55.1144 214.773 55.1144C214.175 55.1144 212.343 55.6474 212.362 56.6214C212.372 56.8824 212.714 57.1134 212.97 57.1134C213.198 57.1134 215.452 56.3164 215.447 55.5514V55.5414ZM219.363 56.3164C219.23 56.8144 216.836 58.0884 216.025 58.0694C215.605 58.0694 215.192 57.8954 215.163 57.5214C215.155 57.0624 215.653 56.7864 215.963 56.2954V56.1404C215.887 56.0704 215.887 56.0384 215.755 56.0254C215.452 56.0254 212.941 58.1314 211.707 58.1314C211.137 58.1314 210.669 57.7944 210.669 57.2784C210.629 55.6184 213.809 54.7864 214.606 54.8084C214.744 54.8084 215.155 54.8554 215.416 54.9354C215.681 54.6394 215.536 54.3044 216.036 54.3044C216.694 54.3044 216.326 55.1874 216.374 55.4394C216.374 55.4394 216.403 55.4874 216.477 55.5414C217.309 55.9744 216.886 56.5904 217.237 57.0154C218.027 56.9484 218.449 56.5424 219.23 56.2654L219.363 56.2954V56.3164V56.3164ZM38.388 45.4124C29.896 52.4364 18.779 52.8264 13.556 46.2974C8.317 39.7574 10.962 28.7674 19.446 21.7454C27.934 14.7224 39.036 14.3284 44.274 20.8634C49.5 27.3974 46.868 38.3914 38.388 45.4124ZM44.734 19.3764C38.277 11.2914 25.69 10.8364 16.61 18.3464C7.53999 25.8544 5.42499 38.4904 11.892 46.5624C18.352 54.6374 30.947 55.1024 40.021 47.5904C49.093 40.0804 51.201 27.4464 44.734 19.3764Z" fill="white"/>
<path fill-rule="evenodd" clip-rule="evenodd" d="M40.7798 27.8354C42.9618 24.7674 41.7598 17.6544 40.3878 19.8074C39.2068 21.6774 33.2108 25.6814 27.9198 28.8984C27.9198 28.8984 29.2158 25.4754 30.3148 22.7134C31.4298 19.9564 26.4518 21.1104 23.5688 22.5974C23.2988 22.7394 21.0068 24.1864 20.8168 25.0974C22.0168 24.8804 22.7168 24.8014 22.5778 25.1224C22.4878 25.3364 22.3968 25.5624 22.2968 25.7994C21.4148 27.9194 20.2248 30.7994 19.0288 33.6634C16.2698 41.4604 17.6508 44.9834 17.6508 44.9834L25.0378 45.2954C25.0378 45.2954 23.1848 44.4974 23.9698 40.2084C24.7388 35.9824 25.8778 35.3474 26.1228 35.2524C26.5528 37.0574 29.2548 44.3664 35.4048 48.6174C42.8528 53.7614 47.9888 51.1924 49.9808 49.1374C51.9758 47.0804 51.9758 42.9644 51.9758 42.9644C51.9758 42.9644 46.3058 47.5924 40.5408 43.6044C36.5638 40.8514 31.0508 35.9164 28.9358 34.0594C29.2958 33.9054 37.0578 33.0644 40.7798 27.8354" fill="white"/>
<path fill-rule="evenodd" clip-rule="evenodd" d="M38.388 45.4124C29.896 52.4364 18.779 52.8264 13.556 46.2974C8.317 39.7574 10.962 28.7674 19.446 21.7454C27.934 14.7224 39.036 14.3284 44.274 20.8634C49.5 27.3974 46.868 38.3914 38.388 45.4124ZM44.734 19.3764C38.277 11.2914 25.69 10.8364 16.61 18.3464C7.53999 25.8544 5.42499 38.4904 11.892 46.5624C18.352 54.6374 30.947 55.1024 40.021 47.5904C49.093 40.0804 51.201 27.4464 44.734 19.3764Z" fill="white"/>
<path fill-rule="evenodd" clip-rule="evenodd" d="M40.7798 27.8354C42.9618 24.7674 41.7598 17.6544 40.3878 19.8074C39.2068 21.6774 33.2108 25.6814 27.9198 28.8984C27.9198 28.8984 29.2158 25.4754 30.3148 22.7134C31.4298 19.9564 26.4518 21.1104 23.5688 22.5974C23.2988 22.7394 21.0068 24.1864 20.8168 25.0974C22.0168 24.8804 22.7168 24.8014 22.5778 25.1224C22.4878 25.3364 22.3968 25.5624 22.2968 25.7994C21.4148 27.9194 20.2248 30.7994 19.0288 33.6634C16.2698 41.4604 17.6508 44.9834 17.6508 44.9834L25.0378 45.2954C25.0378 45.2954 23.1848 44.4974 23.9698 40.2084C24.7388 35.9824 25.8778 35.3474 26.1228 35.2524C26.5528 37.0574 29.2548 44.3664 35.4048 48.6174C42.8528 53.7614 47.9888 51.1924 49.9808 49.1374C51.9758 47.0804 51.9758 42.9644 51.9758 42.9644C51.9758 42.9644 46.3058 47.5924 40.5408 43.6044C36.5638 40.8514 31.0508 35.9164 28.9358 34.0594C29.2958 33.9054 37.0578 33.0644 40.7798 27.8354M58.9738 25.7324H63.2888L61.6968 33.4654H61.7488L67.6838 25.7324H71.0818L65.5218 32.9524L70.6068 42.0124H65.7108L61.6088 34.2884H61.5668L60.0708 42.0134H55.7588L58.9738 25.7324Z" fill="white"/>
<path fill-rule="evenodd" clip-rule="evenodd" d="M78.397 33.1574C78.397 32.5784 78.059 32.2374 77.506 32.2374C76.106 32.2374 75.176 34.2604 74.986 35.4334C77.016 35.4894 78.397 34.7584 78.397 33.1574ZM81.802 40.9294C79.691 41.6974 77.609 42.2834 75.476 42.2834C73.009 42.2834 70.377 41.0414 70.377 38.2084C70.377 34.6794 73.421 29.5364 79.001 29.5364C80.521 29.5364 82.284 30.3714 82.284 32.2674C82.284 35.8014 77.749 37.9634 74.694 37.8714C74.716 39.1744 75.694 39.7154 76.887 39.7154C78.507 39.7154 80.971 38.7294 82.426 37.9424L81.802 40.9294ZM88.57 34.9634H88.842C89.735 32.8984 92.015 29.5374 94.489 29.5374C96.009 29.5374 96.902 30.6654 96.902 32.0834C96.902 32.6734 96.752 33.2534 96.642 33.8434L95 42.0124H90.716L92.216 34.3604C92.235 34.2004 92.328 33.9264 92.328 33.7484C92.328 33.6104 92.288 33.3834 92.076 33.3834C91.308 33.3834 88.673 37.3254 88.24 38.2074L87.492 42.0134H83.174L85.587 29.8074H89.843L88.57 34.9634V34.9634ZM100.366 42.0134L98.064 29.8064H102.459L103.802 36.9504L108.595 29.8064H111.872L100.709 46.3544H96.252L100.366 42.0134ZM118.78 32.4454C118.39 32.2214 117.886 32.0424 117.4 32.0424C114.812 32.0424 113.8 36.7874 113.8 37.9414C113.8 38.2484 113.912 38.6364 114.297 38.6364C115.475 38.6364 117.577 35.0794 118.537 33.6864L118.781 32.4454H118.78ZM118.18 36.8554H117.912C117.006 38.9254 114.746 42.2834 112.26 42.2834C110.516 42.2834 109.496 40.6904 109.496 39.0634C109.496 35.1254 113.333 29.6034 117.561 29.6034C118.559 29.6034 119.252 29.8074 119.574 29.8074H123.605L121.194 42.0144H116.921L118.181 36.8544L118.18 36.8554ZM137.835 35.3724L136.783 29.6964H136.741L133.751 35.3724H137.835V35.3724ZM135.834 25.7324H140.108L143.223 42.0144H139.106L138.327 37.9414H132.36L130.204 42.0144H127.143L135.833 25.7314L135.834 25.7324ZM147.518 25.6584H151.821L151.314 28.0654H146.998L147.518 25.6584ZM146.642 29.8064H150.952L148.542 42.0134H144.216L146.642 29.8064ZM156.08 34.9634H156.344C157.25 32.8984 159.517 29.5374 161.999 29.5374C162.483 29.5374 162.884 29.6684 163.098 29.7834L161.578 33.5664C161.283 33.4164 160.96 33.2744 160.633 33.2744C158.461 33.2744 156.59 36.7874 155.737 38.2084L154.983 42.0144H150.667L153.083 29.8074H157.348L156.08 34.9634ZM164.049 29.8074H167.823L168.09 37.5534H168.146L171.929 29.8074H175.534L175.864 37.5744H175.901L179.728 29.8074H182.743L176.693 42.0134H172.579L172.276 34.6554H172.23L168.63 42.0134H164.517L164.049 29.8074ZM190.135 32.4454C189.732 32.2214 189.236 32.0424 188.752 32.0424C186.157 32.0424 185.156 36.7874 185.156 37.9414C185.156 38.2484 185.264 38.6364 185.646 38.6364C186.836 38.6364 188.942 35.0794 189.894 33.6864L190.135 32.4454V32.4454ZM189.54 36.8554H189.267C188.369 38.9254 186.096 42.2834 183.615 42.2834C181.875 42.2834 180.851 40.6904 180.851 39.0634C180.851 35.1254 184.694 29.6034 188.898 29.6034C189.91 29.6034 190.6 29.8074 190.925 29.8074H194.955L192.545 42.0144H188.261L189.541 36.8544L189.54 36.8554ZM198.732 42.0134L196.425 29.8064H200.84L202.177 36.9504L206.969 29.8064H210.229L199.073 46.3544H194.63L198.732 42.0134ZM218.849 32.5334C217.979 32.2224 217.068 31.9704 216.146 31.9704C215.433 31.9704 214.455 32.1924 214.455 33.0974C214.455 34.5374 218.179 35.5744 218.179 38.2274C218.179 39.8534 217.109 42.2834 212.523 42.2834C211.009 42.2834 209.596 41.9884 208.105 41.6074L208.655 38.7504C209.736 39.2224 211.36 39.8534 212.523 39.8534C213.103 39.8534 213.863 39.4724 213.863 38.6834C213.863 37.0094 210.406 35.9824 210.406 33.3164C210.406 31.8704 211.39 29.5364 215.983 29.5364C217.11 29.5364 218.321 29.7624 219.362 29.8954L218.849 32.5334V32.5334Z" fill="white"/>
<path fill-rule="evenodd" clip-rule="evenodd" d="M147.518 25.6584H151.821L151.314 28.0654H146.998L147.518 25.6584ZM146.642 29.8064H150.952L148.542 42.0134H144.216L146.642 29.8064ZM156.08 34.9634H156.344C157.25 32.8984 159.517 29.5374 161.999 29.5374C162.483 29.5374 162.884 29.6684 163.098 29.7834L161.578 33.5664C161.283 33.4164 160.96 33.2744 160.633 33.2744C158.461 33.2744 156.59 36.7874 155.737 38.2084L154.983 42.0144H150.667L153.083 29.8074H157.348L156.08 34.9634ZM164.049 29.8074H167.823L168.09 37.5534H168.146L171.929 29.8074H175.534L175.864 37.5744H175.901L179.728 29.8074H182.743L176.693 42.0134H172.579L172.276 34.6554H172.23L168.63 42.0134H164.517L164.049 29.8074ZM190.135 32.4454C189.732 32.2214 189.236 32.0424 188.752 32.0424C186.157 32.0424 185.156 36.7874 185.156 37.9414C185.156 38.2484 185.264 38.6364 185.646 38.6364C186.836 38.6364 188.942 35.0794 189.894 33.6864L190.135 32.4454V32.4454ZM189.54 36.8554H189.267C188.369 38.9254 186.096 42.2834 183.615 42.2834C181.875 42.2834 180.851 40.6904 180.851 39.0634C180.851 35.1254 184.694 29.6034 188.898 29.6034C189.91 29.6034 190.6 29.8074 190.925 29.8074H194.955L192.545 42.0144H188.261L189.541 36.8544L189.54 36.8554ZM198.732 42.0134L196.425 29.8064H200.84L202.177 36.9504L206.969 29.8064H210.229L199.073 46.3544H194.63L198.732 42.0134ZM218.849 32.5334C217.979 32.2224 217.068 31.9704 216.146 31.9704C215.433 31.9704 214.455 32.1924 214.455 33.0974C214.455 34.5374 218.179 35.5744 218.179 38.2274C218.179 39.8534 217.109 42.2834 212.523 42.2834C211.009 42.2834 209.596 41.9884 208.105 41.6074L208.655 38.7504C209.736 39.2224 211.36 39.8534 212.523 39.8534C213.103 39.8534 213.863 39.4724 213.863 38.6834C213.863 37.0094 210.406 35.9824 210.406 33.3164C210.406 31.8704 211.39 29.5364 215.983 29.5364C217.11 29.5364 218.321 29.7624 219.362 29.8954L218.849 32.5334V32.5334Z" fill="white"/>
<path fill-rule="evenodd" clip-rule="evenodd" d="M147.518 25.6584H151.821L151.314 28.0654H146.998L147.518 25.6584ZM146.642 29.8064H150.952L148.542 42.0134H144.216L146.642 29.8064ZM156.08 34.9634H156.344C157.25 32.8984 159.517 29.5374 161.999 29.5374C162.483 29.5374 162.884 29.6684 163.098 29.7834L161.578 33.5664C161.283 33.4164 160.96 33.2744 160.633 33.2744C158.461 33.2744 156.59 36.7874 155.737 38.2084L154.983 42.0144H150.667L153.083 29.8074H157.348L156.08 34.9634ZM164.049 29.8074H167.823L168.09 37.5534H168.146L171.929 29.8074H175.534L175.864 37.5744H175.901L179.728 29.8074H182.743L176.693 42.0134H172.579L172.276 34.6554H172.23L168.63 42.0134H164.517L164.049 29.8074ZM190.135 32.4454C189.732 32.2214 189.236 32.0424 188.752 32.0424C186.157 32.0424 185.156 36.7874 185.156 37.9414C185.156 38.2484 185.264 38.6364 185.646 38.6364C186.836 38.6364 188.942 35.0794 189.894 33.6864L190.135 32.4454V32.4454ZM189.54 36.8554H189.267C188.369 38.9254 186.096 42.2834 183.615 42.2834C181.875 42.2834 180.851 40.6904 180.851 39.0634C180.851 35.1254 184.694 29.6034 188.898 29.6034C189.91 29.6034 190.6 29.8074 190.925 29.8074H194.955L192.545 42.0144H188.261L189.541 36.8544L189.54 36.8554ZM198.732 42.0134L196.425 29.8064H200.84L202.177 36.9504L206.969 29.8064H210.229L199.073 46.3544H194.63L198.732 42.0134ZM218.849 32.5334C217.979 32.2224 217.068 31.9704 216.146 31.9704C215.433 31.9704 214.455 32.1924 214.455 33.0974C214.455 34.5374 218.179 35.5744 218.179 38.2274C218.179 39.8534 217.109 42.2834 212.523 42.2834C211.009 42.2834 209.596 41.9884 208.105 41.6074L208.655 38.7504C209.736 39.2224 211.36 39.8534 212.523 39.8534C213.103 39.8534 213.863 39.4724 213.863 38.6834C213.863 37.0094 210.406 35.9824 210.406 33.3164C210.406 31.8704 211.39 29.5364 215.983 29.5364C217.11 29.5364 218.321 29.7624 219.362 29.8954L218.849 32.5334V32.5334Z" fill="white"/>
<path fill-rule="evenodd" clip-rule="evenodd" d="M147.518 25.6584H151.821L151.314 28.0654H146.998L147.518 25.6584ZM146.642 29.8064H150.952L148.542 42.0134H144.216L146.642 29.8064ZM156.08 34.9634H156.344C157.25 32.8984 159.517 29.5374 161.999 29.5374C162.483 29.5374 162.884 29.6684 163.098 29.7834L161.578 33.5664C161.283 33.4164 160.96 33.2744 160.633 33.2744C158.461 33.2744 156.59 36.7874 155.737 38.2084L154.983 42.0144H150.667L153.083 29.8074H157.348L156.08 34.9634ZM164.049 29.8074H167.823L168.09 37.5534H168.146L171.929 29.8074H175.534L175.864 37.5744H175.901L179.728 29.8074H182.743L176.693 42.0134H172.579L172.276 34.6554H172.23L168.63 42.0134H164.517L164.049 29.8074ZM190.135 32.4454C189.732 32.2214 189.236 32.0424 188.752 32.0424C186.157 32.0424 185.156 36.7874 185.156 37.9414C185.156 38.2484 185.264 38.6364 185.646 38.6364C186.836 38.6364 188.942 35.0794 189.894 33.6864L190.135 32.4454V32.4454ZM189.54 36.8554H189.267C188.369 38.9254 186.096 42.2834 183.615 42.2834C181.875 42.2834 180.851 40.6904 180.851 39.0634C180.851 35.1254 184.694 29.6034 188.898 29.6034C189.91 29.6034 190.6 29.8074 190.925 29.8074H194.955L192.545 42.0144H188.261L189.541 36.8544L189.54 36.8554ZM198.732 42.0134L196.425 29.8064H200.84L202.177 36.9504L206.969 29.8064H210.229L199.073 46.3544H194.63L198.732 42.0134ZM218.849 32.5334C217.979 32.2224 217.068 31.9704 216.146 31.9704C215.433 31.9704 214.455 32.1924 214.455 33.0974C214.455 34.5374 218.179 35.5744 218.179 38.2274C218.179 39.8534 217.109 42.2834 212.523 42.2834C211.009 42.2834 209.596 41.9884 208.105 41.6074L208.655 38.7504C209.736 39.2224 211.36 39.8534 212.523 39.8534C213.103 39.8534 213.863 39.4724 213.863 38.6834C213.863 37.0094 210.406 35.9824 210.406 33.3164C210.406 31.8704 211.39 29.5364 215.983 29.5364C217.11 29.5364 218.321 29.7624 219.362 29.8954L218.849 32.5334V32.5334ZM58.9738 25.7324H63.2888L61.6968 33.4654H61.7488L67.6838 25.7324H71.0818L65.5218 32.9524L70.6068 42.0124H65.7108L61.6088 34.2884H61.5668L60.0708 42.0134H55.7588L58.9738 25.7324Z" fill="white"/>
<path fill-rule="evenodd" clip-rule="evenodd" d="M78.397 33.1574C78.397 32.5784 78.059 32.2374 77.506 32.2374C76.106 32.2374 75.176 34.2604 74.986 35.4334C77.016 35.4894 78.397 34.7584 78.397 33.1574ZM81.802 40.9294C79.691 41.6974 77.609 42.2834 75.476 42.2834C73.009 42.2834 70.377 41.0414 70.377 38.2084C70.377 34.6794 73.421 29.5364 79.001 29.5364C80.521 29.5364 82.284 30.3714 82.284 32.2674C82.284 35.8014 77.749 37.9634 74.694 37.8714C74.716 39.1744 75.694 39.7154 76.887 39.7154C78.507 39.7154 80.971 38.7294 82.426 37.9424L81.802 40.9294ZM88.57 34.9634H88.842C89.735 32.8984 92.015 29.5374 94.489 29.5374C96.009 29.5374 96.902 30.6654 96.902 32.0834C96.902 32.6734 96.752 33.2534 96.642 33.8434L95 42.0124H90.716L92.216 34.3604C92.235 34.2004 92.328 33.9264 92.328 33.7484C92.328 33.6104 92.288 33.3834 92.076 33.3834C91.308 33.3834 88.673 37.3254 88.24 38.2074L87.492 42.0134H83.174L85.587 29.8074H89.843L88.57 34.9634V34.9634ZM100.366 42.0134L98.064 29.8064H102.459L103.802 36.9504L108.595 29.8064H111.872L100.709 46.3544H96.252L100.366 42.0134ZM118.78 32.4454C118.39 32.2214 117.886 32.0424 117.4 32.0424C114.812 32.0424 113.8 36.7874 113.8 37.9414C113.8 38.2484 113.912 38.6364 114.297 38.6364C115.475 38.6364 117.577 35.0794 118.537 33.6864L118.781 32.4454H118.78ZM118.18 36.8554H117.912C117.006 38.9254 114.746 42.2834 112.26 42.2834C110.516 42.2834 109.496 40.6904 109.496 39.0634C109.496 35.1254 113.333 29.6034 117.561 29.6034C118.559 29.6034 119.252 29.8074 119.574 29.8074H123.605L121.194 42.0144H116.921L118.181 36.8544L118.18 36.8554ZM137.835 35.3724L136.783 29.6964H136.741L133.751 35.3724H137.835V35.3724ZM135.834 25.7324H140.108L143.223 42.0144H139.106L138.327 37.9414H132.36L130.204 42.0144H127.143L135.833 25.7314L135.834 25.7324ZM147.518 25.6584H151.821L151.314 28.0654H146.998L147.518 25.6584ZM146.642 29.8064H150.952L148.542 42.0134H144.216L146.642 29.8064ZM156.08 34.9634H156.344C157.25 32.8984 159.517 29.5374 161.999 29.5374C162.483 29.5374 162.884 29.6684 163.098 29.7834L161.578 33.5664C161.283 33.4164 160.96 33.2744 160.633 33.2744C158.461 33.2744 156.59 36.7874 155.737 38.2084L154.983 42.0144H150.667L153.083 29.8074H157.348L156.08 34.9634ZM164.049 29.8074H167.823L168.09 37.5534H168.146L171.929 29.8074H175.534L175.864 37.5744H175.901L179.728 29.8074H182.743L176.693 42.0134H172.579L172.276 34.6554H172.23L168.63 42.0134H164.517L164.049 29.8074ZM190.135 32.4454C189.732 32.2214 189.236 32.0424 188.752 32.0424C186.157 32.0424 185.156 36.7874 185.156 37.9414C185.156 38.2484 185.264 38.6364 185.646 38.6364C186.836 38.6364 188.942 35.0794 189.894 33.6864L190.135 32.4454V32.4454ZM189.54 36.8554H189.267C188.369 38.9254 186.096 42.2834 183.615 42.2834C181.875 42.2834 180.851 40.6904 180.851 39.0634C180.851 35.1254 184.694 29.6034 188.898 29.6034C189.91 29.6034 190.6 29.8074 190.925 29.8074H194.955L192.545 42.0144H188.261L189.541 36.8544L189.54 36.8554ZM198.732 42.0134L196.425 29.8064H200.84L202.177 36.9504L206.969 29.8064H210.229L199.073 46.3544H194.63L198.732 42.0134ZM218.849 32.5334C217.979 32.2224 217.068 31.9704 216.146 31.9704C215.433 31.9704 214.455 32.1924 214.455 33.0974C214.455 34.5374 218.179 35.5744 218.179 38.2274C218.179 39.8534 217.109 42.2834 212.523 42.2834C211.009 42.2834 209.596 41.9884 208.105 41.6074L208.655 38.7504C209.736 39.2224 211.36 39.8534 212.523 39.8534C213.103 39.8534 213.863 39.4724 213.863 38.6834C213.863 37.0094 210.406 35.9824 210.406 33.3164C210.406 31.8704 211.39 29.5364 215.983 29.5364C217.11 29.5364 218.321 29.7624 219.362 29.8954L218.849 32.5334V32.5334Z" fill="white"/>
<path fill-rule="evenodd" clip-rule="evenodd" d="M147.518 25.6584H151.821L151.314 28.0654H146.998L147.518 25.6584ZM146.642 29.8064H150.952L148.542 42.0134H144.216L146.642 29.8064ZM156.08 34.9634H156.344C157.25 32.8984 159.517 29.5374 161.999 29.5374C162.483 29.5374 162.884 29.6684 163.098 29.7834L161.578 33.5664C161.283 33.4164 160.96 33.2744 160.633 33.2744C158.461 33.2744 156.59 36.7874 155.737 38.2084L154.983 42.0144H150.667L153.083 29.8074H157.348L156.08 34.9634ZM164.049 29.8074H167.823L168.09 37.5534H168.146L171.929 29.8074H175.534L175.864 37.5744H175.901L179.728 29.8074H182.743L176.693 42.0134H172.579L172.276 34.6554H172.23L168.63 42.0134H164.517L164.049 29.8074ZM190.135 32.4454C189.732 32.2214 189.236 32.0424 188.752 32.0424C186.157 32.0424 185.156 36.7874 185.156 37.9414C185.156 38.2484 185.264 38.6364 185.646 38.6364C186.836 38.6364 188.942 35.0794 189.894 33.6864L190.135 32.4454V32.4454ZM189.54 36.8554H189.267C188.369 38.9254 186.096 42.2834 183.615 42.2834C181.875 42.2834 180.851 40.6904 180.851 39.0634C180.851 35.1254 184.694 29.6034 188.898 29.6034C189.91 29.6034 190.6 29.8074 190.925 29.8074H194.955L192.545 42.0144H188.261L189.541 36.8544L189.54 36.8554ZM198.732 42.0134L196.425 29.8064H200.84L202.177 36.9504L206.969 29.8064H210.229L199.073 46.3544H194.63L198.732 42.0134ZM218.849 32.5334C217.979 32.2224 217.068 31.9704 216.146 31.9704C215.433 31.9704 214.455 32.1924 214.455 33.0974C214.455 34.5374 218.179 35.5744 218.179 38.2274C218.179 39.8534 217.109 42.2834 212.523 42.2834C211.009 42.2834 209.596 41.9884 208.105 41.6074L208.655 38.7504C209.736 39.2224 211.36 39.8534 212.523 39.8534C213.103 39.8534 213.863 39.4724 213.863 38.6834C213.863 37.0094 210.406 35.9824 210.406 33.3164C210.406 31.8704 211.39 29.5364 215.983 29.5364C217.11 29.5364 218.321 29.7624 219.362 29.8954L218.849 32.5334V32.5334Z" fill="white"/>
<path fill-rule="evenodd" clip-rule="evenodd" d="M147.518 25.6584H151.821L151.314 28.0654H146.998L147.518 25.6584ZM146.642 29.8064H150.952L148.542 42.0134H144.216L146.642 29.8064ZM156.08 34.9634H156.344C157.25 32.8984 159.517 29.5374 161.999 29.5374C162.483 29.5374 162.884 29.6684 163.098 29.7834L161.578 33.5664C161.283 33.4164 160.96 33.2744 160.633 33.2744C158.461 33.2744 156.59 36.7874 155.737 38.2084L154.983 42.0144H150.667L153.083 29.8074H157.348L156.08 34.9634ZM164.049 29.8074H167.823L168.09 37.5534H168.146L171.929 29.8074H175.534L175.864 37.5744H175.901L179.728 29.8074H182.743L176.693 42.0134H172.579L172.276 34.6554H172.23L168.63 42.0134H164.517L164.049 29.8074ZM190.135 32.4454C189.732 32.2214 189.236 32.0424 188.752 32.0424C186.157 32.0424 185.156 36.7874 185.156 37.9414C185.156 38.2484 185.264 38.6364 185.646 38.6364C186.836 38.6364 188.942 35.0794 189.894 33.6864L190.135 32.4454V32.4454ZM189.54 36.8554H189.267C188.369 38.9254 186.096 42.2834 183.615 42.2834C181.875 42.2834 180.851 40.6904 180.851 39.0634C180.851 35.1254 184.694 29.6034 188.898 29.6034C189.91 29.6034 190.6 29.8074 190.925 29.8074H194.955L192.545 42.0144H188.261L189.541 36.8544L189.54 36.8554ZM198.732 42.0134L196.425 29.8064H200.84L202.177 36.9504L206.969 29.8064H210.229L199.073 46.3544H194.63L198.732 42.0134ZM218.849 32.5334C217.979 32.2224 217.068 31.9704 216.146 31.9704C215.433 31.9704 214.455 32.1924 214.455 33.0974C214.455 34.5374 218.179 35.5744 218.179 38.2274C218.179 39.8534 217.109 42.2834 212.523 42.2834C211.009 42.2834 209.596 41.9884 208.105 41.6074L208.655 38.7504C209.736 39.2224 211.36 39.8534 212.523 39.8534C213.103 39.8534 213.863 39.4724 213.863 38.6834C213.863 37.0094 210.406 35.9824 210.406 33.3164C210.406 31.8704 211.39 29.5364 215.983 29.5364C217.11 29.5364 218.321 29.7624 219.362 29.8954L218.849 32.5334V32.5334Z" fill="white"/>
</svg>
