<svg width="75" height="75" viewBox="0 0 75 75" fill="none" xmlns="http://www.w3.org/2000/svg">
<g style="mix-blend-mode:multiply">
<path opacity="0.2" d="M23.0569 48.926C20.2666 46.7564 18.0068 43.9803 16.4485 40.8078C14.8902 37.6354 14.0743 34.1499 14.0628 30.6155C14.0042 17.9006 24.2288 7.32446 36.9436 7.03149C41.8645 6.91483 46.6972 8.35044 50.7564 11.1347C54.8155 13.919 57.895 17.9106 59.5582 22.5433C61.2213 27.1761 61.3836 32.215 60.0221 36.9452C58.6606 41.6754 55.8444 45.857 51.9729 48.8967C51.1177 49.5578 50.4249 50.4057 49.9476 51.3755C49.4703 52.3453 49.2211 53.4115 49.219 54.4924V56.2502C49.219 56.8718 48.9721 57.468 48.5325 57.9075C48.093 58.3471 47.4968 58.594 46.8752 58.594H28.1252C27.5036 58.594 26.9075 58.3471 26.468 57.9075C26.0284 57.468 25.7815 56.8718 25.7815 56.2502V54.4924C25.7742 53.4196 25.5254 52.3622 25.0538 51.3986C24.5821 50.435 23.8996 49.5899 23.0569 48.926Z" fill="#2E2E2E"/>
<path d="M25.7812 67.9688H49.2188" stroke="#2E2E2E" stroke-width="2" stroke-linecap="round" stroke-linejoin="round"/>
<path d="M37.5 58.5938V42.1875" stroke="#2E2E2E" stroke-width="2" stroke-linecap="round" stroke-linejoin="round"/>
<path d="M28.125 32.8125L37.5 42.1875L46.875 32.8125" stroke="#2E2E2E" stroke-width="2" stroke-linecap="round" stroke-linejoin="round"/>
<path d="M23.0569 48.926C20.2666 46.7564 18.0068 43.9803 16.4485 40.8078C14.8902 37.6354 14.0743 34.1499 14.0628 30.6155C14.0042 17.9006 24.2288 7.32446 36.9436 7.03149C41.8645 6.91483 46.6972 8.35044 50.7564 11.1347C54.8155 13.919 57.895 17.9106 59.5582 22.5433C61.2213 27.1761 61.3836 32.215 60.0221 36.9452C58.6606 41.6754 55.8444 45.857 51.9729 48.8967C51.1177 49.5578 50.4249 50.4057 49.9476 51.3755C49.4703 52.3453 49.2211 53.4115 49.219 54.4924V56.2502C49.219 56.8718 48.9721 57.468 48.5325 57.9075C48.093 58.3471 47.4968 58.594 46.8752 58.594H28.1252C27.5036 58.594 26.9075 58.3471 26.468 57.9075C26.0284 57.468 25.7815 56.8718 25.7815 56.2502V54.4924C25.7742 53.4196 25.5254 52.3622 25.0538 51.3986C24.5821 50.435 23.8996 49.5899 23.0569 48.926V48.926Z" stroke="#2E2E2E" stroke-width="2" stroke-linecap="round" stroke-linejoin="round"/>
</g>
</svg>
