<svg width="8" height="10" viewBox="0 0 8 10" fill="none" xmlns="http://www.w3.org/2000/svg">
<path d="M7.63636 4.4H6.86364V1.6C6.86364 0.71625 6.2125 0 5.40909 0H2.59091C1.7875 0 1.13636 0.71625 1.13636 1.6V4.4H0.363636C0.1625 4.4 0 4.57875 0 4.8V9.6C0 9.82125 0.1625 10 0.363636 10H7.63636C7.8375 10 8 9.82125 8 9.6V4.8C8 4.57875 7.8375 4.4 7.63636 4.4ZM4.31818 7.3625V8.025C4.31818 8.08 4.27727 8.125 4.22727 8.125H3.77273C3.72273 8.125 3.68182 8.08 3.68182 8.025V7.3625C3.58802 7.28842 3.518 7.18351 3.48185 7.06287C3.4457 6.94223 3.44529 6.81208 3.48066 6.69117C3.51603 6.57025 3.58538 6.4648 3.6787 6.38999C3.77203 6.31519 3.88452 6.27488 4 6.27488C4.11548 6.27488 4.22797 6.31519 4.3213 6.38999C4.41462 6.4648 4.48397 6.57025 4.51934 6.69117C4.55471 6.81208 4.5543 6.94223 4.51815 7.06287C4.482 7.18351 4.41198 7.28842 4.31818 7.3625ZM6.04545 4.4H1.95455V1.6C1.95455 1.21375 2.23977 0.9 2.59091 0.9H5.40909C5.76023 0.9 6.04545 1.21375 6.04545 1.6V4.4Z" fill="#1660CF"/>
</svg>
