<svg width="17" height="16" viewBox="0 0 17 16" fill="none" xmlns="http://www.w3.org/2000/svg">
<path fill-rule="evenodd" clip-rule="evenodd" d="M8.25 16C12.6683 16 16.25 12.4183 16.25 8C16.25 3.58172 12.6683 0 8.25 0C3.83172 0 0.25 3.58172 0.25 8C0.25 12.4183 3.83172 16 8.25 16Z" fill="#01DB5D"/>
<path fill-rule="evenodd" clip-rule="evenodd" d="M13.1996 6.29301C13.5901 5.90248 13.5901 5.26932 13.1996 4.8788C12.8091 4.48827 12.1759 4.48827 11.7854 4.8788L6.83564 9.82854L4.71432 7.70722C4.32379 7.3167 3.69063 7.3167 3.3001 7.70722C2.90958 8.09775 2.90958 8.73091 3.3001 9.12144L6.12853 11.9499C6.51905 12.3404 7.15222 12.3404 7.54274 11.9499L13.1996 6.29301Z" fill="white"/>
</svg>
