<svg width="80" height="80" viewBox="0 0 80 80" fill="none" xmlns="http://www.w3.org/2000/svg">
<rect width="80" height="80" rx="40" fill="#26A212"/>
<g clip-path="url(#clip0_2569_5596)">
<path d="M50.668 29.3335H29.3346C27.8546 29.3335 26.6813 30.5202 26.6813 32.0002L26.668 48.0002C26.668 49.4802 27.8546 50.6668 29.3346 50.6668H34.668C35.4013 50.6668 36.0013 50.0668 36.0013 49.3335C36.0013 48.6002 35.4013 48.0002 34.668 48.0002H29.3346V40.0002H53.3346V32.0002C53.3346 30.5335 52.1346 29.3335 50.668 29.3335ZM50.668 34.6668H29.3346V32.0002H50.668V34.6668ZM43.908 49.5602L41.0813 46.7335C40.5613 46.2135 39.7213 46.2135 39.2013 46.7335C38.6813 47.2535 38.6813 48.0935 39.2013 48.6135L42.9746 52.3868C43.4946 52.9068 44.3346 52.9068 44.8546 52.3868L52.4013 44.8402C52.9213 44.3202 52.9213 43.4802 52.4013 42.9602C51.8813 42.4402 51.0413 42.4402 50.5213 42.9602L43.908 49.5602Z" fill="white"/>
</g>
<defs>
<clipPath id="clip0_2569_5596">
<rect width="32" height="32" fill="white" transform="translate(24 24)"/>
</clipPath>
</defs>
</svg>
